PathFileType	4	(X/Y/Z)	 s10c0403.trc
DataRate	CameraRate	NumFrames	NumMarkers	Units	OrigDataRate	OrigDataStartFrame	OrigNumFrames
200	200	4	49	mm	200	1001	2000
Frame#	Time	racr			lacr			c7			jug			rlel			rdr			llel			ldr			s2			lic			ric			lasi			rasi			rpsi			lpsi			rgt			lgt			rth1			rth2			rth3			rth4			rlfc			rmfc			rsh1			rsh2			rsh3			rsh4			rlmal			rmmal			rcal			rtoe			rmt5			lth1			lth2			lth4			lth3			llfc			lmfc			llmal			lcal			lmt5			lsh1			lsh2			lsh3			lsh4			ltoe			SBIKE			LBIKE			RBIKE			
		X1	Y1	Z1	X2	Y2	Z2	X3	Y3	Z3	X4	Y4	Z4	X5	Y5	Z5	X6	Y6	Z6	X7	Y7	Z7	X8	Y8	Z8	X9	Y9	Z9	X10	Y10	Z10	X11	Y11	Z11	X12	Y12	Z12	X13	Y13	Z13	X14	Y14	Z14	X15	Y15	Z15	X16	Y16	Z16	X17	Y17	Z17	X18	Y18	Z18	X19	Y19	Z19	X20	Y20	Z20	X21	Y21	Z21	X22	Y22	Z22	X23	Y23	Z23	X24	Y24	Z24	X25	Y25	Z25	X26	Y26	Z26	X27	Y27	Z27	X28	Y28	Z28	X29	Y29	Z29	X30	Y30	Z30	X31	Y31	Z31	X32	Y32	Z32	X33	Y33	Z33	X34	Y34	Z34	X35	Y35	Z35	X36	Y36	Z36	X37	Y37	Z37	X38	Y38	Z38	X39	Y39	Z39	X40	Y40	Z40	X41	Y41	Z41	X42	Y42	Z42	X43	Y43	Z43	X44	Y44	Z44	X45	Y45	Z45	X46	Y46	Z46	X47	Y47	Z47	X48	Y48	Z48	X49	Y49	Z49	
1001	5.0050	694.572085	1342.229701	-24.475424	645.117123	1341.685999	-309.527795	643.692649	1360.216273	-169.764371	650.330806	1208.734102	-151.604489	574.221336	1097.925614	92.992477	619.731883	908.323353	6.955615	562.779308	1104.144795	-456.089135	646.821907	908.662628	-395.338571	127.647453	1127.893569	-226.640789	325.379625	1126.508955	-327.669857	278.494739	1124.918019	-59.922237	331.722520	1041.304505	-305.866381	272.303182	1049.977477	-63.331653	161.812389	1183.416189	-166.109546	194.279772	1189.696982	-273.438691	161.148807	1036.096745	-26.559200	212.297512	1008.283057	-405.127159	266.132687	940.618628	0.164646	354.023167	929.328486	-5.580344	421.426856	877.865828	-1.994486	366.902685	964.240658	-11.579711	526.256801	836.754819	-14.591108	533.305290	822.136277	-141.639101	438.376681	765.163850	5.529737	394.715739	688.542187	-7.551967	320.534971	645.482768	-16.601334	419.019850	668.654657	-29.773570	242.555652	560.540976	-38.071626	274.376677	567.434851	-114.810570	187.595269	565.590373	-87.220452	389.117473	428.805778	-83.776178	303.831600	444.982312	-24.189836	244.217302	887.551411	-417.628370	277.115388	809.681982	-399.205918	311.174292	817.178899	-386.089497	266.213943	722.084557	-393.057558	276.818345	614.502408	-382.807362	267.680914	601.007496	-265.744696	19.522362	334.600182	-386.576655	-39.301607	336.790817	-342.415651	72.636220	195.947863	-395.341173	174.665804	540.812361	-414.434381	146.334189	458.877036	-402.319887	77.932873	401.436953	-397.182521	172.870885	443.357826	-379.320926	148.521498	178.613826	-339.218254	-204.303194	832.003301	-224.298693	-78.161185	82.010097	-423.714026	-102.628129	80.768242	-24.334176	
1002	5.0100	694.996302	1340.625067	-24.691742	645.322455	1342.609422	-309.532079	644.615905	1360.147711	-169.350746	649.738393	1208.337839	-152.449926	573.331612	1097.569673	92.688858	619.695684	908.391986	7.096309	563.420575	1105.004017	-455.458871	646.913196	908.752510	-394.988784	126.965201	1130.798683	-223.671675	322.758889	1130.659347	-327.771908	278.862481	1126.621357	-58.006843	331.178317	1044.833020	-307.171550	272.782639	1051.547135	-62.859923	161.779764	1186.127050	-162.751651	193.013077	1192.478781	-270.120772	162.234977	1038.098242	-24.167118	210.776970	1011.841046	-403.837557	265.349868	939.260337	1.178222	352.869154	926.551419	-5.170599	419.369504	873.776901	-2.894331	366.392441	961.291834	-10.616435	523.737255	831.547703	-15.857849	529.644837	817.950525	-142.874275	436.135865	759.802877	4.682745	394.017443	682.074014	-7.663006	320.529896	637.661183	-15.944339	418.628669	662.280969	-29.844596	244.550005	550.183191	-37.189057	276.009807	558.085279	-113.807765	189.212845	553.222381	-86.078222	395.472845	424.069267	-83.385217	310.310089	437.408055	-22.903709	245.175877	890.520390	-416.297139	280.953114	813.726792	-398.259680	314.675345	822.400384	-385.162949	273.407361	725.773482	-392.454917	286.705675	617.865550	-382.179294	277.807232	603.477204	-265.599346	21.995897	344.996505	-386.768077	-36.100273	350.163819	-341.958786	67.285998	203.210960	-395.294075	182.370646	546.807574	-414.170333	151.859478	465.649990	-402.014323	81.914630	410.058611	-397.071455	177.861265	449.425769	-378.833036	141.880741	181.046767	-339.369411	-204.252161	832.031262	-224.198788	-78.137225	82.033296	-423.690838	-102.585240	80.782196	-24.317046	
1003	5.0150	694.831807	1339.084281	-25.262820	645.678028	1343.471751	-309.730042	645.517954	1360.118725	-169.146304	649.118532	1208.081848	-153.246077	572.339461	1097.247371	91.623259	620.128421	908.415150	7.323231	564.099587	1105.838443	-454.948560	647.022299	908.740227	-394.715019	126.280393	1133.615927	-220.827825	320.169858	1134.628937	-328.095703	279.480852	1128.040677	-56.054140	330.599157	1048.301730	-308.840684	273.556600	1052.991258	-62.457155	162.020791	1188.579419	-159.242832	191.907329	1195.051187	-266.749517	163.250083	1039.778219	-21.991431	209.066635	1015.376097	-402.408931	264.436654	938.081365	2.327494	351.714588	923.377394	-4.781116	417.015714	869.114595	-3.841157	365.940527	957.958271	-9.794507	520.911004	825.629233	-17.180905	524.915060	813.041552	-144.140558	434.346707	752.781883	2.801489	393.064145	674.502910	-7.838575	320.339064	628.867888	-15.246637	418.290192	655.179290	-29.661408	246.159138	539.547137	-36.109933	277.130031	548.145324	-113.325952	190.552295	540.419271	-85.381546	401.170331	418.740430	-82.958235	315.437338	428.638433	-22.700172	246.170926	893.257804	-414.947204	285.712799	818.275476	-398.136364	317.573263	827.149657	-383.358475	280.976182	729.614650	-391.790956	296.898910	621.422978	-381.387962	288.313932	606.373138	-265.061636	25.148504	355.174926	-387.106721	-32.525347	363.312859	-341.877210	62.160153	210.413933	-395.191918	190.629329	552.685255	-413.851441	157.827053	472.428870	-401.693895	86.478759	418.749262	-397.188620	183.307350	455.602560	-378.418531	135.436946	183.943273	-339.533927	-204.198141	832.002160	-224.023474	-78.137217	82.074906	-423.691552	-102.581316	80.796322	-24.300263	
1004	5.0200	694.522270	1338.030265	-25.573301	646.362372	1344.585282	-310.877686	646.347260	1360.144769	-168.759553	647.877265	1208.069725	-155.411522	570.570557	1097.454693	91.119175	620.107030	908.484731	7.572994	564.877579	1106.538827	-454.568933	647.136134	908.734351	-394.471560	125.827319	1136.368120	-217.543210	317.528507	1138.411682	-328.583432	280.249516	1129.400387	-53.890452	329.727286	1051.395619	-310.644043	274.559504	1054.247915	-62.269282	162.420768	1190.709771	-155.830190	190.793567	1197.441801	-263.144273	164.439408	1041.277479	-19.881983	207.314495	1018.739345	-400.991628	263.591793	936.467539	3.228866	350.472335	919.848243	-4.671744	414.443702	863.898115	-4.739738	365.603116	954.129441	-9.039037	517.643193	819.150060	-18.541850	519.507260	807.486760	-145.090042	431.601694	745.040279	2.156683	391.886606	665.988330	-8.042944	319.965924	618.863102	-14.768922	417.037770	647.058413	-30.167266	247.554975	527.869816	-35.580278	278.116642	537.700395	-112.905467	191.764629	526.998325	-84.640460	406.242502	412.936586	-82.589309	320.200279	419.724721	-22.260775	247.210784	895.725216	-413.605285	289.811718	822.342187	-397.188498	321.279983	832.570454	-382.375304	288.967544	733.431447	-391.103852	307.135061	624.973563	-380.130266	298.945261	609.438215	-264.330337	28.625304	365.055033	-387.502258	-28.704105	375.848813	-341.701060	57.678992	218.392887	-395.365594	199.172974	558.724356	-413.486679	164.245136	479.250461	-401.420519	91.407070	427.547848	-397.467103	188.801195	462.076806	-377.869110	129.115262	187.408012	-339.690603	-204.157604	832.022602	-223.935901	-78.119835	82.104086	-423.697951	-102.569264	80.807641	-24.292339	
